<svg width="231" height="66" viewBox="0 0 231 66" fill="none" xmlns="http://www.w3.org/2000/svg">
<path d="M24.4896 35.1066C25.9655 47.5392 54.6192 49.3744 54.6192 49.3744C28.2559 51.7525 2.51982 55.9148 0.00869165 38.0801C0.00869165 38.0801 -2.50251 9.54282 77.8442 0.0323665C84.7489 -0.784928 21.9785 13.9567 24.4896 35.1066Z" fill="#DB261D"/>
<path d="M79.9264 33.4073C74.8337 18.9216 43.6435 32.2001 39.1875 36.4252C39.1875 36.4252 65.2855 30.1001 65.286 41.8572C65.2862 53.6144 39.1875 66 39.1875 66C50.6457 61.1712 85.0191 47.8929 79.9264 33.4073Z" fill="#0083C4"/>
<path d="M120.248 25.9093C119.895 24.7987 119.418 23.8037 118.82 22.9249C118.234 22.0337 117.532 21.277 116.715 20.6543C115.897 20.0195 114.963 19.5374 113.913 19.2078C112.875 18.8782 111.734 18.7134 110.489 18.7134C108.377 18.7134 106.473 19.2566 104.776 20.343C103.079 21.4294 101.737 23.0225 100.748 25.1221C99.7712 27.2095 99.283 29.7668 99.283 32.7942C99.283 35.8337 99.7774 38.4033 100.766 40.503C101.755 42.6026 103.11 44.1955 104.831 45.282C106.552 46.3685 108.511 46.9116 110.709 46.9116C112.747 46.9116 114.523 46.4966 116.037 45.6664C117.563 44.8365 118.741 43.6646 119.571 42.1509C120.413 40.6251 120.834 38.8305 120.834 36.7676L122.299 37.0423H111.569V32.373H126.309V36.6395C126.309 39.7887 125.638 42.5232 124.295 44.8425C122.965 47.1496 121.121 48.932 118.765 50.1893C116.422 51.4466 113.736 52.0752 110.709 52.0752C107.315 52.0752 104.337 51.294 101.773 49.7314C99.2219 48.1689 97.2322 45.9533 95.8039 43.0848C94.3757 40.2039 93.6616 36.7859 93.6616 32.8309C93.6616 29.84 94.0766 27.1545 94.9068 24.7741C95.7367 22.3938 96.9026 20.3735 98.4039 18.7134C99.9176 17.041 101.694 15.7654 103.732 14.8865C105.783 13.9954 108.023 13.5498 110.452 13.5498C112.479 13.5498 114.365 13.8489 116.11 14.447C117.868 15.0452 119.431 15.8936 120.798 16.9922C122.177 18.0908 123.319 19.397 124.222 20.9107C125.125 22.4122 125.736 24.0785 126.053 25.9093H120.248ZM150.868 39.8987V23.4374H156.361V51.5625H150.978V46.6919H150.685C150.038 48.1934 149.001 49.4445 147.572 50.4457C146.156 51.4344 144.393 51.9288 142.281 51.9288C140.474 51.9288 138.875 51.532 137.483 50.7385C136.104 49.9329 135.017 48.7427 134.224 47.1679C133.443 45.5932 133.052 43.6462 133.052 41.3269V23.4374H138.527V40.6678C138.527 42.5842 139.058 44.1101 140.12 45.2453C141.182 46.3807 142.561 46.9483 144.258 46.9483C145.284 46.9483 146.303 46.6919 147.316 46.1792C148.341 45.6664 149.19 44.8913 149.861 43.8537C150.545 42.8163 150.881 41.4977 150.868 39.8987ZM139.369 19.0247C138.503 19.0247 137.746 18.7073 137.099 18.0725C136.452 17.4255 136.128 16.6809 136.128 15.8386C136.128 14.9231 136.452 14.1602 137.099 13.5498C137.746 12.9394 138.503 12.6343 139.369 12.6343C140.285 12.6343 141.048 12.9394 141.658 13.5498C142.281 14.1602 142.592 14.9231 142.592 15.8386C142.592 16.6809 142.281 17.4255 141.658 18.0725C141.048 18.7073 140.285 19.0247 139.369 19.0247ZM150.136 19.0247C149.269 19.0247 148.512 18.7073 147.865 18.0725C147.218 17.4255 146.895 16.6809 146.895 15.8386C146.895 14.9231 147.218 14.1602 147.865 13.5498C148.512 12.9394 149.269 12.6343 150.136 12.6343C151.051 12.6343 151.814 12.9394 152.425 13.5498C153.047 14.1602 153.359 14.9231 153.359 15.8386C153.359 16.6809 153.047 17.4255 152.425 18.0725C151.814 18.7073 151.051 19.0247 150.136 19.0247ZM163.132 51.5625V47.8088L178.366 28.4547V28.1983H163.626V23.4374H185.196V27.4292L170.547 46.5455V46.8018H185.709V51.5625H163.132ZM203.484 52.1301C200.713 52.1301 198.326 51.5382 196.324 50.3541C194.335 49.1576 192.796 47.4792 191.71 45.3187C190.636 43.1459 190.099 40.6005 190.099 37.6831C190.099 34.8022 190.636 32.2633 191.71 30.0659C192.796 27.8687 194.31 26.1535 196.251 24.9206C198.204 23.6878 200.487 23.0713 203.099 23.0713C204.686 23.0713 206.224 23.3337 207.713 23.8586C209.202 24.3835 210.54 25.2075 211.724 26.3305C212.908 27.4535 213.842 28.9123 214.525 30.7067C215.208 32.4889 215.55 34.6558 215.55 37.2071V39.1479H193.193V35.0464H210.185C210.185 33.606 209.893 32.3303 209.307 31.2194C208.721 30.0964 207.896 29.2114 206.834 28.5644C205.785 27.9174 204.552 27.594 203.136 27.594C201.598 27.594 200.255 27.9725 199.107 28.7292C197.972 29.474 197.093 30.4503 196.471 31.659C195.86 32.8552 195.555 34.1552 195.555 35.5592V38.7635C195.555 40.6432 195.885 42.2425 196.544 43.5608C197.215 44.8792 198.149 45.8863 199.346 46.582C200.542 47.2657 201.939 47.6075 203.539 47.6075C204.576 47.6075 205.522 47.461 206.376 47.1679C207.232 46.8629 207.97 46.4112 208.593 45.8131C209.214 45.2147 209.69 44.4764 210.02 43.5973L215.201 44.5312C214.787 46.0571 214.042 47.3938 212.968 48.5414C211.906 49.6766 210.569 50.5616 208.958 51.1962C207.36 51.8189 205.535 52.1301 203.484 52.1301ZM227.1 14.0625V51.5625H221.624V14.0625H227.1Z" fill="black"/>
</svg>
